<?xml version="1.0" standalone="no"?>
<!DOCTYPE svg PUBLIC "-//W3C//DTD SVG 20010904//EN"
 "http://www.w3.org/TR/2001/REC-SVG-20010904/DTD/svg10.dtd">
<svg version="1.0" xmlns="http://www.w3.org/2000/svg"
 width="139.000000pt" height="101.000000pt" viewBox="0 0 139.000000 101.000000"
 preserveAspectRatio="xMidYMid meet">

<g transform="translate(0.000000,101.000000) scale(0.100000,-0.100000)"
fill="#000000" stroke="none">
<path d="M516 941 c-22 -25 -13 -58 19 -73 52 -23 105 55 56 82 -30 15 -56 12
-75 -9z"/>
<path d="M636 944 c-31 -31 -6 -74 43 -74 32 0 51 16 51 45 0 12 -5 26 -12 33
-17 17 -64 15 -82 -4z"/>
<path d="M762 948 c-15 -15 -15 -51 0 -66 27 -27 98 -4 98 32 0 36 -71 61 -98
34z"/>
<path d="M100 460 l0 -390 580 0 580 0 0 390 0 390 -580 0 -580 0 0 -390z
m1135 142 c0 -119 -2 -281 -3 -359 l-2 -143 -550 0 -550 0 0 360 0 360 553 0
552 0 0 -218z"/>
<path d="M650 670 c-18 -32 -33 -62 -32 -66 1 -20 22 -13 36 13 l15 28 1 -37
c0 -21 -5 -38 -10 -38 -25 0 -60 -50 -60 -85 0 -35 35 -85 60 -85 5 0 10 -7
10 -15 0 -11 -11 -15 -40 -15 -29 0 -40 -4 -40 -15 0 -11 11 -15 40 -15 33 0
40 -3 40 -20 0 -17 -7 -20 -40 -20 -29 0 -40 -4 -40 -15 0 -11 11 -15 40 -15
33 0 40 -3 40 -20 0 -17 -7 -20 -40 -20 -29 0 -40 -4 -40 -15 0 -11 11 -15 40
-15 29 0 40 -4 40 -15 0 -8 7 -15 15 -15 8 0 15 7 15 15 0 11 12 15 45 15 33
0 45 4 45 14 0 10 -14 16 -42 18 -31 2 -44 8 -46 20 -3 15 4 18 42 18 34 0 46
4 46 15 0 11 -12 15 -46 15 -38 0 -45 3 -42 18 2 12 15 18 46 20 28 2 42 8 42
18 0 10 -12 14 -45 14 -52 0 -58 13 -15 35 35 18 50 43 50 85 0 33 -38 80 -65
80 -11 0 -15 10 -15 38 1 35 2 36 15 18 8 -11 15 -23 15 -28 0 -4 7 -8 15 -8
8 0 15 5 15 10 0 12 -59 118 -69 125 -4 2 -23 -22 -41 -55z m16 -238 c-3 -2
-12 1 -21 8 -20 17 -19 59 3 83 16 19 17 18 20 -33 2 -29 1 -55 -2 -58z m66
91 c22 -20 23 -56 2 -77 -26 -27 -34 -18 -34 39 0 59 4 64 32 38z"/>
</g>
</svg>
